<?xml version="1.0" encoding="UTF-8"?>
<svg xmlns="http://www.w3.org/2000/svg" viewBox="0 0 24 24">
  <path fill="#FFFFFF"
    d="M12,9.47c-1.09-2.11-4.05-6.05-6.8-7.99C2.57-.39,1.56-.07.9.23.14.57,0,1.75,0,2.43s.38,5.65.62,6.48
       c.81,2.74,3.71,3.66,6.38,3.36.14-.02.28-.04.41-.06-.14.02-.28.04-.41.06-3.91.58-7.39,2.01-2.83,7.08
       c5.01,5.19,6.87-1.11,7.82-4.31.95,3.19,2.05,9.27,7.73,4.31c4.27-4.31,1.17-6.5-2.74-7.08
       c-.14-.02-.28-.03-.42-.06.14.02.28.04.42.06,2.67.3,5.57-.63,6.38-3.36c.25-.83.62-5.79.62-6.48
       s-.14-1.86-.9-2.21c-.66-.3-1.66-.62-4.3,1.24c-2.75,1.95-5.71,5.88-6.8,8H12Z"
    transform="translate(0,1.33)"
  />
</svg>