<?xml version="1.0" encoding="UTF-8"?>
<svg id="Layer_1" xmlns="http://www.w3.org/2000/svg" version="1.1" viewBox="0 0 23.98 21.34">
  <!-- Generator: Adobe Illustrator 29.5.1, SVG Export Plug-In . SVG Version: 2.1.0 Build 141)  -->
  <defs>
    <style>
      .st0 {
        fill: #fff;
      }
    </style>
  </defs>
  <path class="st0" d="M12,9.48c-1.09-2.11-4.05-6.05-6.8-7.99C2.57-.38,1.56-.06.9.24.14.58,0,1.76,0,2.44s.38,5.65.62,6.48c.81,2.74,3.71,3.66,6.38,3.36.14-.02.28-.04.41-.06-.14.02-.28.04-.41.06-3.91.58-7.39,2.01-2.83,7.08,5.01,5.19,6.87-1.11,7.82-4.31.95,3.19,2.05,9.27,7.73,4.31,4.27-4.31,1.17-6.5-2.74-7.08-.14-.02-.28-.03-.42-.06.14.02.28.04.42.06,2.67.3,5.57-.63,6.38-3.36.25-.83.62-5.79.62-6.48s-.14-1.86-.9-2.21c-.66-.3-1.66-.62-4.3,1.24-2.75,1.95-5.71,5.88-6.8,8h.02,0Z"/>
</svg>